Work

I get the song is called Halo but the 'halo effect' in the video IMO was
overdone. I adjusted brightness/contrast to clear it up. IMO it is 
much better than the original. Check out thevideo to see 
what i mean. I added a touch of saturation, yadif deinterlace and cropped.

File

Format                           : AVI
Format/Info                      : Audio Video Interleave
File size                        : 41.1 MiB
Duration                         : 3mn 45s
Overall bit rate                 : 1 530 Kbps
Writing library                  : VirtualDub build 30091/release

Video

Format                           : AVC
Format/Info                      : Advanced Video Codec
Format profile                   : High@L3.1
Format settings, CABAC           : Yes
Format settings, ReFrames        : 16 frames
Codec ID                         : H264
Duration                         : 3mn 45s
Bit rate                         : 1 200 Kbps
Width                            : 688 pixels
Height                           : 304 pixels
Display aspect ratio             : 2.25
Frame rate                       : 25.000 fps
Resolution                       : 24 bits
Colorimetry                      : 4:2:0
Scan type                        : Progressive
Bits/(Pixel*Frame)               : 0.229
Stream size                      : 32.3 MiB (78%)
Writing library                  : x264 core 68 r1189bm 9d0b5e9
Encoding settings                : cabac=1 / ref=16 / deblock=1:-1:-1 /
  analyse=0x3:0x133 / me=tesa / subme=9 / psy_rd=0.0:0.0 / mixed_ref=1 /
  me_range=32 / chroma_me=1 / trellis=2 / 8x8dct=1 / cqm=0 / deadzone=21,11 /
  chroma_qp_offset=0 / threads=2 / thread_queue=2 / nr=0 / decimate=1 /
  mbaff=0 / bframes=4 / b_pyramid=1 / b_adapt=2 / b_bias=0 / direct=3 /
  wpredb=1 / keyint=240 / keyint_min=24 / scenecut=40 / rc=2pass /
  bitrate=1200 / ratetol=1.0 / qcomp=0.60 / qpmin=10 / qpmax=51 / qpstep=4 /
  cplxblur=20.0 / qblur=0.5 / ip_ratio=1.40 / pb_ratio=1.30 / aq=1:1.00

Audio

Format                           : MPEG Audio
Format version                   : Version 1
Format profile                   : Layer 3
Codec ID                         : 55
Codec ID/Hint                    : MP3
Duration                         : 3mn 45s
Bit rate mode                    : Constant
Bit rate                         : 320 Kbps
Channel(s)                       : 2 channels
Sampling rate                    : 48.0 KHz
Resolution                       : 16 bits
Stream size                      : 8.60 MiB (21%)
Alignment                        : Split accross interleaves
Interleave, duration             : 40 ms (1.00 video frame)
Interleave, preload duration     : 500 ms
Writing library                  : LAME3.98.2
 
http://i18.photobucket.com/albums/b116/mattlb0619/music_video/snapshot20090803162007.jpg 
http://i18.photobucket.com/albums/b116/mattlb0619/music_video/snapshot20090803162016.jpg 
http://i18.photobucket.com/albums/b116/mattlb0619/music_video/snapshot20090803162023.jpg 
http://i18.photobucket.com/albums/b116/mattlb0619/music_video/thumbs20090803162029.jpg
